<svg width="136" height="51" viewBox="0 0 136 51" fill="none" xmlns="http://www.w3.org/2000/svg">
<rect y="0.319763" width="75.6327" height="49.661" rx="16" fill="#54595F"/>
<g clip-path="url(#clip0)">
<path d="M35.3495 32.894C34.7906 32.894 34.2675 32.7993 33.7802 32.6099C33.2929 32.4206 32.8702 32.1657 32.5119 31.8453C32.1679 31.5103 31.8957 31.117 31.695 30.6655C31.4944 30.214 31.3941 29.7261 31.3941 29.2017C31.3941 28.6191 31.5159 28.0875 31.7595 27.6069C32.0031 27.1262 32.3399 26.7111 32.7699 26.3615C33.1998 26.012 33.7086 25.7425 34.2961 25.5532C34.898 25.3638 35.5573 25.2692 36.2738 25.2692C37.191 25.2692 37.9506 25.4148 38.5525 25.7061V25.3566C38.5525 24.8176 38.3949 24.4171 38.0796 24.1549C37.7786 23.8928 37.2842 23.7617 36.5963 23.7617C35.9514 23.7617 35.3566 23.8709 34.8121 24.0894C34.2675 24.2933 33.6942 24.5992 33.0923 25.007L31.91 22.429C33.4004 21.4531 35.0987 20.9652 37.0047 20.9652C38.8105 20.9652 40.2006 21.373 41.1751 22.1887C42.1497 23.0043 42.6369 24.2278 42.6369 25.859V28.0875C42.6369 28.4808 42.6942 28.7575 42.8089 28.9177C42.9235 29.0634 43.1242 29.1507 43.4108 29.1799V32.6755C43.0812 32.7483 42.7659 32.7993 42.4649 32.8284C42.1783 32.8721 41.9203 32.894 41.6911 32.894C40.9602 32.894 40.4012 32.7629 40.0143 32.5007C39.6417 32.224 39.3981 31.8234 39.2834 31.2991L39.1974 30.884C38.6958 31.5394 38.1154 32.0419 37.4562 32.3915C36.7969 32.7265 36.0947 32.894 35.3495 32.894ZM36.5748 29.9227C36.8184 29.9227 37.0692 29.8863 37.3272 29.8135C37.5852 29.7261 37.8145 29.6168 38.0151 29.4857C38.1727 29.3692 38.3017 29.2454 38.402 29.1143C38.5024 28.9687 38.5525 28.823 38.5525 28.6774V27.8253C38.3089 27.7379 38.0438 27.6651 37.7571 27.6069C37.4705 27.5486 37.2125 27.5195 36.9832 27.5195C36.4816 27.5195 36.066 27.6433 35.7364 27.8909C35.4068 28.1385 35.242 28.4516 35.242 28.8303C35.242 29.1507 35.3638 29.4129 35.6074 29.6168C35.8654 29.8207 36.1879 29.9227 36.5748 29.9227Z" fill="white"/>
<path d="M49.551 32.894C48.5622 32.894 47.5948 32.7337 46.6489 32.4133C45.7031 32.0783 44.9005 31.5977 44.2413 30.9714L45.6386 28.4808C46.3408 28.9614 47.0144 29.3328 47.6593 29.595C48.3185 29.8572 48.9204 29.9882 49.465 29.9882C50.0383 29.9882 50.3249 29.8062 50.3249 29.442C50.3249 29.2381 50.2102 29.0634 49.9809 28.9177C49.766 28.7721 49.336 28.6046 48.6911 28.4152C47.8886 28.1822 47.215 27.9564 46.6704 27.7379C46.1402 27.5049 45.7031 27.2573 45.3591 26.9951C45.0295 26.7329 44.793 26.4416 44.6497 26.1212C44.5064 25.8008 44.4348 25.4221 44.4348 24.9851C44.4348 24.4025 44.5494 23.8636 44.7787 23.3684C45.008 22.8732 45.3233 22.4435 45.7246 22.0794C46.1402 21.7153 46.6274 21.4386 47.1864 21.2492C47.7596 21.0453 48.383 20.9433 49.0566 20.9433C49.8878 20.9433 50.676 21.0526 51.4212 21.2711C52.1808 21.4895 52.9403 21.9338 53.6999 22.6038L52.1521 25.0944C51.4499 24.6283 50.8623 24.3006 50.3894 24.1112C49.9165 23.9073 49.4722 23.8054 49.0566 23.8054C48.813 23.8054 48.6123 23.8564 48.4547 23.9583C48.297 24.0457 48.2182 24.1913 48.2182 24.3953C48.2182 24.6137 48.3329 24.7958 48.5622 24.9414C48.7915 25.0725 49.2429 25.2255 49.9165 25.4002C50.7333 25.6187 51.4212 25.8518 51.9802 26.0994C52.5391 26.3324 52.9833 26.5946 53.313 26.8859C53.6569 27.1626 53.9005 27.483 54.0439 27.8472C54.1872 28.1967 54.2588 28.6046 54.2588 29.0706C54.2588 29.6678 54.1513 30.1994 53.9364 30.6655C53.7214 31.1316 53.4061 31.5321 52.9905 31.8671C52.5892 32.2021 52.0948 32.457 51.5072 32.6318C50.934 32.8066 50.2819 32.894 49.551 32.894Z" fill="white"/>
<path d="M67.0275 32.6755H62.943V26.2086C62.943 25.6406 62.8141 25.2327 62.5561 24.9851C62.3125 24.723 62.0044 24.5919 61.6317 24.5919C61.5028 24.5919 61.3451 24.6356 61.1588 24.723C60.9868 24.7958 60.8077 24.905 60.6214 25.0507C60.4494 25.1818 60.2846 25.3493 60.127 25.5532C59.9693 25.7571 59.8403 25.9828 59.74 26.2305V32.6755H55.6556V16.7268H59.74V22.8878C60.1413 22.2615 60.6644 21.7881 61.3093 21.4677C61.9542 21.1327 62.6779 20.9652 63.4805 20.9652C64.2687 20.9652 64.8993 21.1036 65.3722 21.3803C65.8451 21.657 66.2034 22.0066 66.447 22.429C66.6907 22.8368 66.8483 23.281 66.92 23.7617C66.9916 24.2423 67.0275 24.6938 67.0275 25.1162V32.6755Z" fill="white"/>
<path d="M74.115 32.6755V17.1637H84.584V20.8778H78.3069V23.4558H83.4232V26.9077H78.3069V32.6755H74.115Z" fill="white"/>
<path d="M85.8626 16.7268H89.947V28.1093C89.947 28.9832 90.2981 29.4202 91.0003 29.4202C91.1723 29.4202 91.3586 29.3911 91.5592 29.3328C91.7599 29.2745 91.9462 29.1944 92.1181 29.0925L92.6341 32.1511C92.1468 32.3842 91.5951 32.5662 90.9788 32.6973C90.3769 32.8284 89.8036 32.894 89.2591 32.894C88.1699 32.894 87.3315 32.6099 86.7439 32.0419C86.1563 31.4739 85.8626 30.6509 85.8626 29.5731V16.7268Z" fill="white"/>
<path d="M96.922 32.894C96.3631 32.894 95.84 32.7993 95.3528 32.6099C94.8655 32.4206 94.4427 32.1657 94.0844 31.8453C93.7405 31.5103 93.4682 31.117 93.2676 30.6655C93.0669 30.214 92.9666 29.7261 92.9666 29.2017C92.9666 28.6191 93.0884 28.0875 93.332 27.6069C93.5757 27.1262 93.9125 26.7111 94.3424 26.3615C94.7723 26.012 95.2811 25.7425 95.8687 25.5532C96.4706 25.3638 97.1298 25.2692 97.8464 25.2692C98.7636 25.2692 99.5231 25.4148 100.125 25.7061V25.3566C100.125 24.8176 99.9674 24.4171 99.6521 24.1549C99.3512 23.8928 98.8567 23.7617 98.1688 23.7617C97.5239 23.7617 96.9292 23.8709 96.3846 24.0894C95.84 24.2933 95.2668 24.5992 94.6648 25.007L93.4825 22.429C94.973 21.4531 96.6712 20.9652 98.5773 20.9652C100.383 20.9652 101.773 21.373 102.748 22.1887C103.722 23.0043 104.209 24.2278 104.209 25.859V28.0875C104.209 28.4808 104.267 28.7575 104.381 28.9177C104.496 29.0634 104.697 29.1507 104.983 29.1799V32.6755C104.654 32.7483 104.338 32.7993 104.037 32.8284C103.751 32.8721 103.493 32.894 103.264 32.894C102.533 32.894 101.974 32.7629 101.587 32.5007C101.214 32.224 100.971 31.8234 100.856 31.2991L100.77 30.884C100.268 31.5394 99.688 32.0419 99.0287 32.3915C98.3695 32.7265 97.6672 32.894 96.922 32.894ZM98.1473 29.9227C98.391 29.9227 98.6418 29.8863 98.8997 29.8135C99.1577 29.7261 99.387 29.6168 99.5876 29.4857C99.7453 29.3692 99.8743 29.2454 99.9746 29.1143C100.075 28.9687 100.125 28.823 100.125 28.6774V27.8253C99.8814 27.7379 99.6163 27.6651 99.3297 27.6069C99.043 27.5486 98.7851 27.5195 98.5558 27.5195C98.0542 27.5195 97.6386 27.6433 97.309 27.8909C96.9794 28.1385 96.8145 28.4516 96.8145 28.8303C96.8145 29.1507 96.9364 29.4129 97.18 29.6168C97.438 29.8207 97.7604 29.9227 98.1473 29.9227Z" fill="white"/>
<path d="M111.124 32.894C110.135 32.894 109.167 32.7337 108.221 32.4133C107.276 32.0783 106.473 31.5977 105.814 30.9714L107.211 28.4808C107.913 28.9614 108.587 29.3328 109.232 29.595C109.891 29.8572 110.493 29.9882 111.038 29.9882C111.611 29.9882 111.897 29.8062 111.897 29.442C111.897 29.2381 111.783 29.0634 111.553 28.9177C111.339 28.7721 110.909 28.6046 110.264 28.4152C109.461 28.1822 108.788 27.9564 108.243 27.7379C107.713 27.5049 107.276 27.2573 106.932 26.9951C106.602 26.7329 106.366 26.4416 106.222 26.1212C106.079 25.8008 106.007 25.4221 106.007 24.9851C106.007 24.4025 106.122 23.8636 106.351 23.3684C106.581 22.8732 106.896 22.4435 107.297 22.0794C107.713 21.7153 108.2 21.4386 108.759 21.2492C109.332 21.0453 109.956 20.9433 110.629 20.9433C111.46 20.9433 112.249 21.0526 112.994 21.2711C113.753 21.4895 114.513 21.9338 115.272 22.6038L113.725 25.0944C113.022 24.6283 112.435 24.3006 111.962 24.1112C111.489 23.9073 111.045 23.8054 110.629 23.8054C110.385 23.8054 110.185 23.8564 110.027 23.9583C109.87 24.0457 109.791 24.1913 109.791 24.3953C109.791 24.6137 109.905 24.7958 110.135 24.9414C110.364 25.0725 110.815 25.2255 111.489 25.4002C112.306 25.6187 112.994 25.8518 113.553 26.0994C114.112 26.3324 114.556 26.5946 114.885 26.8859C115.229 27.1626 115.473 27.483 115.616 27.8472C115.76 28.1967 115.831 28.6046 115.831 29.0706C115.831 29.6678 115.724 30.1994 115.509 30.6655C115.294 31.1316 114.979 31.5321 114.563 31.8671C114.162 32.2021 113.667 32.457 113.08 32.6318C112.507 32.8066 111.854 32.894 111.124 32.894Z" fill="white"/>
<path d="M128.6 32.6755H124.516V26.2086C124.516 25.6406 124.387 25.2327 124.129 24.9851C123.885 24.723 123.577 24.5919 123.204 24.5919C123.075 24.5919 122.918 24.6356 122.731 24.723C122.559 24.7958 122.38 24.905 122.194 25.0507C122.022 25.1818 121.857 25.3493 121.7 25.5532C121.542 25.7571 121.413 25.9828 121.313 26.2305V32.6755H117.228V16.7268H121.313V22.8878C121.714 22.2615 122.237 21.7881 122.882 21.4677C123.527 21.1327 124.25 20.9652 125.053 20.9652C125.841 20.9652 126.472 21.1036 126.945 21.3803C127.418 21.657 127.776 22.0066 128.02 22.429C128.263 22.8368 128.421 23.281 128.493 23.7617C128.564 24.2423 128.6 24.6938 128.6 25.1162V32.6755Z" fill="white"/>
<path fill-rule="evenodd" clip-rule="evenodd" d="M21.2698 17.1394C17.255 17.1394 14.1042 20.3488 14.1042 24.1792C14.1042 28.0096 17.255 31.219 21.2698 31.219C23.2429 31.219 25.0167 30.4391 26.3074 29.1854L29.6081 32.695C27.4521 34.7894 24.5047 36.074 21.2698 36.074C14.7314 36.074 9.32715 30.8061 9.32715 24.1792C9.32715 17.5523 14.7314 12.2844 21.2698 12.2844C24.5047 12.2844 27.4521 13.569 29.6081 15.6634L26.3074 19.1731C25.0167 17.9193 23.2429 17.1394 21.2698 17.1394Z" fill="white"/>
<path d="M23.4197 26.8495L22.3079 29.1094C24.8579 28.5869 29.0479 24.1484 30.8241 21.9945H23.4197V26.8495Z" fill="#FEE802"/>
<path fill-rule="evenodd" clip-rule="evenodd" d="M18.0247 13.7409L22.4642 4.51642L20.6994 13.7409H18.0247ZM20.9343 36.0661C20.0926 36.0597 19.2867 35.9231 18.9889 35.8555L14.1044 45.7841L20.9343 36.0661Z" fill="#FEE802"/>
<path d="M20.9774 12.288C20.156 12.3078 19.3538 12.4106 18.5792 12.5887L11.7158 26.8495L14.6401 26.8495C14.2942 26.0224 14.1044 25.1195 14.1044 24.1792C14.1044 20.7535 16.6246 17.8245 20.0292 17.2439L20.9774 12.288Z" fill="#FEE802"/>
<path d="M20.6314 26.8495L23.4197 26.8495L22.3073 29.1105C24.4594 28.5368 26.0471 26.5465 26.0471 24.1792C26.0471 23.3974 25.8739 22.6566 25.5644 21.9945H20.7943C20.4843 22.8243 20.3146 23.7244 20.3146 24.6647C20.3146 25.4245 20.4254 26.1581 20.6314 26.8495Z" fill="#FEE802"/>
<path d="M19.6381 26.8495C19.4561 26.1524 19.3591 25.4201 19.3591 24.6647C19.3591 23.7319 19.5071 22.8342 19.7804 21.9945L19.1203 21.9945L19.6396 19.2802C17.5463 19.8932 16.0152 21.8545 16.0152 24.1792C16.0152 25.1583 16.2868 26.0729 16.7575 26.8495H19.6381Z" fill="#FEE802"/>
</g>
<path d="M81.1836 32.3558V16.8441H91.6526V20.5581H85.3755V23.1362H90.4917V26.5881H85.3755V32.3558H81.1836Z" fill="black"/>
<path d="M92.9311 16.4071H97.0155V27.7897C97.0155 28.6636 97.3666 29.1005 98.0689 29.1005C98.2408 29.1005 98.4272 29.0714 98.6278 29.0132C98.8284 28.9549 99.0147 28.8748 99.1867 28.7728L99.7026 31.8315C99.2154 32.0645 98.6636 32.2466 98.0474 32.3777C97.4455 32.5088 96.8722 32.5743 96.3276 32.5743C95.2385 32.5743 94.4001 32.2903 93.8125 31.7222C93.2249 31.1542 92.9311 30.3313 92.9311 29.2535V16.4071Z" fill="black"/>
<path d="M103.991 32.5743C103.432 32.5743 102.909 32.4796 102.421 32.2903C101.934 32.1009 101.511 31.8461 101.153 31.5256C100.809 31.1906 100.537 30.7974 100.336 30.3459C100.135 29.8943 100.035 29.4064 100.035 28.8821C100.035 28.2995 100.157 27.7678 100.401 27.2872C100.644 26.8065 100.981 26.3914 101.411 26.0419C101.841 25.6923 102.35 25.4229 102.937 25.2335C103.539 25.0442 104.198 24.9495 104.915 24.9495C105.832 24.9495 106.592 25.0952 107.194 25.3865V25.0369C107.194 24.498 107.036 24.0974 106.721 23.8353C106.42 23.5731 105.925 23.442 105.237 23.442C104.593 23.442 103.998 23.5513 103.453 23.7697C102.909 23.9736 102.335 24.2795 101.733 24.6873L100.551 22.1093C102.042 21.1335 103.74 20.6455 105.646 20.6455C107.452 20.6455 108.842 21.0534 109.816 21.869C110.791 22.6846 111.278 23.9081 111.278 25.5394V27.7678C111.278 28.1611 111.335 28.4378 111.45 28.598C111.565 28.7437 111.765 28.8311 112.052 28.8602V32.3558C111.722 32.4287 111.407 32.4796 111.106 32.5088C110.819 32.5525 110.561 32.5743 110.332 32.5743C109.601 32.5743 109.042 32.4432 108.655 32.181C108.283 31.9043 108.039 31.5038 107.925 30.9794L107.839 30.5643C107.337 31.2198 106.757 31.7222 106.097 32.0718C105.438 32.4068 104.736 32.5743 103.991 32.5743ZM105.216 29.603C105.46 29.603 105.71 29.5666 105.968 29.4938C106.226 29.4064 106.456 29.2972 106.656 29.1661C106.814 29.0496 106.943 28.9258 107.043 28.7947C107.143 28.649 107.194 28.5034 107.194 28.3577V27.5057C106.95 27.4183 106.685 27.3455 106.398 27.2872C106.112 27.2289 105.854 27.1998 105.624 27.1998C105.123 27.1998 104.707 27.3236 104.378 27.5712C104.048 27.8188 103.883 28.132 103.883 28.5107C103.883 28.8311 104.005 29.0933 104.249 29.2972C104.507 29.5011 104.829 29.603 105.216 29.603Z" fill="black"/>
<path d="M118.192 32.5743C117.203 32.5743 116.236 32.4141 115.29 32.0937C114.344 31.7587 113.542 31.278 112.882 30.6517L114.28 28.1611C114.982 28.6417 115.655 29.0132 116.3 29.2753C116.96 29.5375 117.562 29.6686 118.106 29.6686C118.679 29.6686 118.966 29.4865 118.966 29.1224C118.966 28.9185 118.851 28.7437 118.622 28.598C118.407 28.4524 117.977 28.2849 117.332 28.0956C116.53 27.8625 115.856 27.6368 115.312 27.4183C114.781 27.1852 114.344 26.9376 114 26.6755C113.671 26.4133 113.434 26.122 113.291 25.8016C113.148 25.4811 113.076 25.1024 113.076 24.6655C113.076 24.0829 113.191 23.544 113.42 23.0488C113.649 22.5536 113.964 22.1239 114.366 21.7598C114.781 21.3956 115.269 21.1189 115.827 20.9296C116.401 20.7256 117.024 20.6237 117.698 20.6237C118.529 20.6237 119.317 20.7329 120.062 20.9514C120.822 21.1699 121.581 21.6141 122.341 22.2841L120.793 24.7747C120.091 24.3086 119.503 23.9809 119.031 23.7916C118.558 23.5877 118.113 23.4857 117.698 23.4857C117.454 23.4857 117.253 23.5367 117.096 23.6386C116.938 23.726 116.859 23.8717 116.859 24.0756C116.859 24.2941 116.974 24.4761 117.203 24.6218C117.433 24.7529 117.884 24.9058 118.558 25.0806C119.374 25.2991 120.062 25.5321 120.621 25.7797C121.18 26.0128 121.624 26.2749 121.954 26.5662C122.298 26.843 122.542 27.1634 122.685 27.5275C122.828 27.8771 122.9 28.2849 122.9 28.751C122.9 29.3481 122.792 29.8798 122.577 30.3459C122.363 30.8119 122.047 31.2125 121.632 31.5475C121.23 31.8825 120.736 32.1374 120.148 32.3121C119.575 32.4869 118.923 32.5743 118.192 32.5743Z" fill="black"/>
<path d="M135.669 32.3558H131.584V25.889C131.584 25.3209 131.455 24.9131 131.197 24.6655C130.954 24.4033 130.645 24.2722 130.273 24.2722C130.144 24.2722 129.986 24.3159 129.8 24.4033C129.628 24.4761 129.449 24.5854 129.263 24.731C129.091 24.8621 128.926 25.0296 128.768 25.2335C128.61 25.4374 128.481 25.6632 128.381 25.9108V32.3558H124.297V16.4071H128.381V22.5681C128.782 21.9418 129.306 21.4685 129.95 21.148C130.595 20.813 131.319 20.6455 132.122 20.6455C132.91 20.6455 133.54 20.7839 134.013 21.0606C134.486 21.3374 134.845 21.6869 135.088 22.1093C135.332 22.5171 135.489 22.9614 135.561 23.442C135.633 23.9227 135.669 24.3742 135.669 24.7966V32.3558Z" fill="black"/>
<defs>
<clipPath id="clip0">
<rect width="70.7755" height="46.8633" fill="white" transform="translate(2.08154 1.71863)"/>
</clipPath>
</defs>
</svg>
